<?xml version="1.0" standalone="no"?><!DOCTYPE svg PUBLIC "-//W3C//DTD SVG 1.1//EN" "http://www.w3.org/Graphics/SVG/1.1/DTD/svg11.dtd"><svg class="icon" style="width: 5em; height: 5em;vertical-align: middle;fill: currentColor;overflow: hidden;" viewBox="0 0 1024 1024" version="1.1" xmlns="http://www.w3.org/2000/svg"><path d="M859.093333 406.613333L582.826667 172.8a113.706667 113.706667 0 0 0-141.653334 0l-277.333333 234.666667a43.733333 43.733333 0 0 0 28.373333 77.226666h638.506667a43.733333 43.733333 0 0 0 28.373333-78.08z" fill="#FC455D" /><path d="M814.933333 410.666667v362.666666a103.893333 103.893333 0 0 1-105.386666 102.613334H661.333333a42.666667 42.666667 0 0 1-42.666666-42.666667v-149.333333a78.293333 78.293333 0 0 0-31.146667-60.373334A122.026667 122.026667 0 0 0 512 598.613333c-58.88 0-106.666667 38.186667-106.666667 85.333334v149.333333a42.666667 42.666667 0 0 1-42.666666 42.666667h-48.213334a103.893333 103.893333 0 0 1-105.386666-102.613334v-362.666666z" fill="#FC455D" /></svg>